<svg width="104" height="18" viewBox="0 0 104 18" fill="none" xmlns="http://www.w3.org/2000/svg">
<path d="M21.709 9.52326V5.17418V0.825104H36.4046V3.82244L25.4417 3.85183L25.427 6.65816C25.4188 8.2015 25.4252 9.46449 25.4417 9.46449C25.4581 9.46449 25.7685 9.15771 26.1324 8.78216C26.4962 8.4072 27.0182 7.93056 27.2933 7.7231C27.5684 7.51564 28.0575 7.21531 28.3808 7.05487C28.7112 6.89089 29.1873 6.71164 29.4683 6.64523C29.9362 6.53415 30.1666 6.52651 36.2283 6.52592V9.52326H25.4565C25.4681 9.71697 25.4123 11.2701 25.4123 15.6355H21.709V9.52326Z" fill="white"/>
<path d="M55.6853 10.6987V5.7619V0.825104H59.1535V15.6355H55.6853V10.6987Z" fill="white"/>
<path d="M42.1065 4.39017C42.3487 4.33904 42.6268 4.28615 42.7238 4.27263C42.8208 4.25911 44.2756 4.25265 49.0135 4.2691L49.5719 4.42015C49.8794 4.5036 50.3291 4.65406 50.5713 4.75514C50.814 4.85564 51.2108 5.06604 51.453 5.22238C51.6958 5.37812 52.0496 5.64964 52.2395 5.82478C52.4294 6.00051 52.7045 6.30259 52.8508 6.49654C52.9972 6.69048 53.23 7.08719 53.3681 7.37811C53.5063 7.66903 53.6603 8.06573 53.7108 8.25968C53.7608 8.45363 53.8302 8.90323 53.8643 9.25879C53.906 9.69253 53.9078 10.1086 53.8695 10.5224C53.8384 10.8621 53.7696 11.3117 53.7173 11.5215C53.6644 11.7313 53.4939 12.168 53.3382 12.4912C53.1824 12.8145 52.8967 13.2776 52.7045 13.5197C52.5117 13.7624 52.2042 14.0792 52.0208 14.225C51.8374 14.3707 51.5024 14.6017 51.2761 14.7392C51.0503 14.8767 50.7 15.0554 50.4978 15.1365C50.2956 15.2182 49.9188 15.3363 49.6601 15.3992C49.4015 15.4627 48.9647 15.5415 48.6902 15.575C48.4157 15.6084 47.1189 15.6355 45.8099 15.6349C44.5008 15.6349 43.1911 15.6073 42.9001 15.5738C42.6091 15.5409 42.1595 15.4609 41.9008 15.3963C41.6422 15.3316 41.2189 15.1871 40.9603 15.0742C40.7016 14.962 40.3489 14.7845 40.1761 14.6799C40.0033 14.5753 39.6859 14.3419 39.4707 14.1609C39.2556 13.9805 38.9687 13.6896 38.8335 13.5144C38.6989 13.3399 38.4932 13.0378 38.3768 12.8438C38.261 12.6499 38.1017 12.319 38.0235 12.1092C37.9453 11.8994 37.8536 11.6214 37.8189 11.4921C37.7848 11.3628 37.7284 10.9526 37.6943 10.5811C37.6502 10.108 37.6502 9.72015 37.6931 9.28818C37.7267 8.94848 37.8231 8.43306 37.9065 8.14214C37.99 7.85122 38.1687 7.40456 38.3045 7.15008C38.4397 6.89501 38.696 6.513 38.8735 6.30083C39.051 6.08867 39.372 5.76836 39.5859 5.58852C39.7999 5.40927 40.1567 5.16184 40.3795 5.0396C40.6017 4.91677 40.982 4.74163 41.2248 4.64994C41.467 4.55826 41.8638 4.44131 42.1065 4.39017Z" fill="white"/>
<path d="M64.1794 7.79421L65.5902 6.01755L67.001 4.24031L69.1172 4.23443C71.1081 4.22914 71.2281 4.23443 71.1452 4.32905C71.0964 4.3843 70.1088 5.56913 68.9508 6.96142C67.7922 8.3543 66.8329 9.52679 66.8199 9.56734C66.8064 9.60789 67.7869 10.9761 68.9996 12.6088C70.2117 14.2408 71.2039 15.5902 71.2039 15.6061C71.2039 15.622 70.2581 15.6361 67.001 15.6378L63.474 10.7046L61.3432 10.7016C60.171 10.6999 59.2135 10.6787 59.2146 10.6546C59.2158 10.6305 59.341 10.4383 59.4933 10.2285C59.6449 10.0187 59.9418 9.66432 60.1522 9.44098C60.3627 9.21824 60.7066 8.90558 60.917 8.74631C61.1274 8.58704 61.4578 8.38134 61.6518 8.28907C61.8458 8.19679 62.2032 8.06515 62.4453 7.99697C62.6916 7.92703 63.1719 7.85533 64.1794 7.79421Z" fill="white"/>
<path d="M72.2967 11.6243C72.2174 11.2388 72.2033 10.6387 72.2033 7.70135V4.23384H75.6126L75.6121 7.30465C75.6115 9.96523 75.6244 10.4189 75.7067 10.6987C75.759 10.8768 75.8619 11.1412 75.9354 11.2864C76.0082 11.4322 76.144 11.642 76.2369 11.7525C76.3304 11.8635 76.5249 12.0498 76.6707 12.1668C76.8165 12.2832 77.094 12.4436 77.6406 12.6675L84.3295 12.7263L83.9745 13.1965C83.7793 13.4551 83.4384 13.8447 83.2168 14.0628C82.9952 14.2808 82.6813 14.5547 82.5196 14.6722C82.358 14.7892 82.0141 14.9878 81.7554 15.113C81.4968 15.2382 81.0736 15.3992 80.8149 15.4703C80.3764 15.5914 80.2177 15.6002 78.4636 15.6032C76.82 15.6061 76.5232 15.592 76.1123 15.4956C75.8536 15.4345 75.4569 15.3087 75.2306 15.2159C75.0042 15.123 74.6768 14.9608 74.5028 14.8562C74.3288 14.7516 73.9885 14.4806 73.7457 14.2544C73.5035 14.0281 73.1755 13.6449 73.0168 13.4022C72.8587 13.16 72.6529 12.7633 72.5595 12.5206C72.466 12.2785 72.3479 11.8747 72.2967 11.6243Z" fill="white"/>
<path d="M84.3713 12.6969V8.46538V4.23384H87.7806V6.04106C87.7801 7.38457 87.7571 7.99168 87.6895 8.40661C87.6402 8.71398 87.5273 9.17651 87.4391 9.43511C87.3509 9.6937 87.1611 10.1039 87.0177 10.3461C86.8742 10.5888 86.5668 10.9855 86.3352 11.2276C86.103 11.4704 85.705 11.8177 85.4505 12.0005C85.1966 12.1833 84.8497 12.4142 84.3713 12.6969Z" fill="white"/>
<path d="M94.4819 4.44601C94.66 4.3937 94.9639 4.32788 95.1579 4.29967C95.3518 4.27146 97.2364 4.24501 103.182 4.23384V6.64347H97.7443C94.1586 6.64347 92.3069 6.62349 92.3069 6.5847C92.3069 6.55237 92.381 6.37371 92.4715 6.18799C92.5626 6.00227 92.7213 5.72428 92.8242 5.57089C92.9277 5.4175 93.151 5.183 93.3209 5.04959C93.4908 4.91677 93.7488 4.7475 93.894 4.67404C94.0392 4.60058 94.3037 4.49773 94.4819 4.44601Z" fill="white"/>
<path d="M90.6022 6.90618C90.7474 6.85387 91.0384 6.7757 91.2488 6.7328C91.4593 6.6899 91.7696 6.65228 92.2481 6.64347L92.16 6.84917C92.1112 6.9626 92.0718 7.20062 92.0718 7.37811C92.0718 7.55619 92.1 7.77423 92.1347 7.86297C92.1688 7.95172 92.2552 8.08689 92.3257 8.16271C92.3963 8.23852 92.5332 8.34431 92.6302 8.39779C92.7878 8.48477 93.2427 8.49829 96.9507 8.52709C100.626 8.5553 101.133 8.56999 101.433 8.65933C101.619 8.71398 101.95 8.84504 102.168 8.95024C102.441 9.08189 102.704 9.27878 103.011 9.58204C103.322 9.88882 103.513 10.1392 103.641 10.4048C103.743 10.6152 103.866 10.9455 103.915 11.1395C103.966 11.3364 104.005 11.7389 104.004 12.0504C104.003 12.3578 103.963 12.7739 103.916 12.9761C103.868 13.1783 103.732 13.535 103.614 13.7695C103.468 14.061 103.269 14.3272 102.982 14.6123C102.687 14.9067 102.435 15.0919 102.124 15.2447C101.881 15.3634 101.478 15.5003 101.227 15.5485C100.843 15.622 99.8381 15.6355 88.78 15.6355V13.2259L100.223 13.1965L100.438 13.0349C100.557 12.9461 100.693 12.7939 100.742 12.6969C100.791 12.5999 100.83 12.3948 100.829 12.2414C100.829 12.0628 100.782 11.8794 100.697 11.7307C100.625 11.6032 100.473 11.4445 100.36 11.3781C100.159 11.26 100.059 11.2564 95.8045 11.2253C91.8778 11.1965 91.4205 11.1836 91.1019 11.0901C90.9079 11.0325 90.5781 10.9015 90.3688 10.7986C90.1602 10.6952 89.8545 10.4783 89.6899 10.3167C89.5253 10.1551 89.326 9.89058 89.2467 9.72896C89.125 9.47977 89.1033 9.34989 89.1033 8.87678C89.1038 8.38839 89.1232 8.28201 89.2579 8.02459C89.3431 7.86297 89.5147 7.62965 89.6399 7.50623C89.7651 7.38281 89.9732 7.21825 90.1026 7.14185C90.2319 7.06486 90.457 6.95907 90.6022 6.90618Z" fill="white"/>
<path d="M42.739 7.10438C42.9089 7.0368 43.1864 6.95745 43.3562 6.92924C43.5261 6.90045 44.6107 6.874 45.7663 6.87047C47.4734 6.8646 47.953 6.88105 48.3234 6.95628C48.5738 7.008 48.9341 7.13318 49.1246 7.23544C49.3144 7.33829 49.5984 7.56045 49.7565 7.7303C49.914 7.90015 50.1086 8.17755 50.1885 8.3474C50.2691 8.51725 50.3743 8.84108 50.4225 9.06735C50.4713 9.29362 50.5113 9.6768 50.5113 9.91953C50.5113 10.1617 50.4713 10.5454 50.4225 10.7717C50.3743 10.998 50.2691 11.3218 50.1885 11.4917C50.1086 11.6615 49.904 11.9407 49.7341 12.1123C49.5643 12.2839 49.2798 12.4955 49.1022 12.583C48.9247 12.6706 48.6332 12.7811 48.4556 12.8287C48.1958 12.8986 47.6632 12.9157 45.7516 12.9169C43.7371 12.918 43.321 12.9034 43.0476 12.8234C42.8701 12.7717 42.568 12.6459 42.3775 12.5437C42.1865 12.442 41.9219 12.2375 41.7897 12.0894C41.6568 11.9419 41.4728 11.6639 41.3794 11.4723C41.2865 11.2813 41.1748 10.9521 41.1307 10.7423C41.0866 10.5325 41.0508 10.1487 41.0508 9.89014C41.0508 9.63155 41.0872 9.24777 41.1313 9.03796C41.1748 8.82815 41.2806 8.51725 41.3653 8.3474C41.4499 8.17755 41.6186 7.92953 41.7397 7.79612C41.8608 7.66212 42.066 7.47993 42.1953 7.3906C42.3246 7.30127 42.5691 7.17256 42.739 7.10438Z" fill="#1E1E1E"/>
<path d="M7.67567 0.26967C7.8109 0.196416 8.01859 0.108673 8.13853 0.0748636C8.25767 0.0418592 10.737 0.0104648 18.9406 0L18.8939 0.221371C18.8682 0.342923 18.6243 1.00382 18.3522 1.69047C17.9223 2.77317 17.8056 2.98891 17.4731 3.32056C17.1962 3.59667 16.9716 3.73674 16.6665 3.82448C16.3115 3.92671 15.5106 3.94603 11.6555 3.94442C7.91153 3.94281 6.99304 3.96374 6.66461 4.05793C6.39896 4.1344 6.13734 4.29218 5.89665 4.5216C5.62859 4.77678 5.46035 5.04242 5.26876 5.51414C5.12548 5.86834 4.92745 6.33523 4.83005 6.55177C4.73184 6.76911 4.50725 7.06937 4.33015 7.21991C4.15305 7.37124 3.82703 7.54753 3.60566 7.61193C3.29977 7.70129 2.81758 7.72463 1.5932 7.70853C0.573287 7.69565 -0.0103264 7.65782 0.000138362 7.6071C0.00899319 7.56283 0.20219 7.00095 0.429195 6.35938C0.656201 5.7178 0.897696 5.08348 0.965315 4.95065C1.03293 4.81783 1.20198 4.58841 1.34044 4.44029C1.4797 4.29298 1.7381 4.09496 1.9152 4.00077C2.19533 3.85185 2.4167 3.82368 3.60566 3.78665C4.89444 3.74559 4.99507 3.7311 5.33638 3.53308C5.53521 3.41716 5.81052 3.1821 5.94656 3.00984C6.0826 2.83757 6.34422 2.31675 6.52776 1.85146C6.74591 1.29844 6.95923 0.901583 7.14518 0.704361C7.30135 0.538535 7.53962 0.342923 7.67567 0.26967Z" fill="white"/>
<path d="M10.1432 6.15138C10.3203 6.0411 10.5828 5.91713 10.7269 5.87688C10.871 5.83663 12.501 5.80041 14.3493 5.79638C16.1975 5.79236 17.7093 5.81651 17.7085 5.84951C17.7069 5.88252 17.5853 6.21739 17.438 6.59412C17.2899 6.97086 17.05 7.58586 16.9059 7.9626C16.761 8.33933 16.5252 8.79173 16.3827 8.96883C16.2394 9.14592 15.9456 9.38178 15.3354 9.69331L12.357 9.73356C9.71419 9.76898 9.34229 9.78991 9.05652 9.91871C8.87942 9.9984 8.63229 10.1618 8.50752 10.281C8.38275 10.4009 8.2129 10.607 8.13079 10.7398C8.04868 10.8726 7.87158 11.2711 7.73876 11.6253C7.60513 11.9795 7.34754 12.6492 7.16481 13.1145C6.98288 13.5798 6.67779 14.3767 6.4862 14.8855C6.29542 15.3942 6.0491 15.9923 5.93881 16.2137C5.82934 16.4351 5.59831 16.7345 5.42604 16.8786C5.25297 17.0227 4.94868 17.1925 4.74985 17.2561C4.4987 17.3358 3.88852 17.3793 2.76396 17.3962C1.87123 17.4099 1.11776 17.4026 1.09039 17.3809C1.06302 17.3592 1.12581 17.1233 1.23127 16.8577C1.33672 16.592 1.63215 15.8128 1.88813 15.127C2.14412 14.4411 2.60779 13.2272 2.91932 12.4303C3.23085 11.6333 3.54801 10.8549 3.62368 10.6995C3.70015 10.5442 3.88449 10.314 4.03422 10.1868C4.18475 10.0596 4.45201 9.87926 4.6291 9.7875C4.90441 9.6434 5.13061 9.61523 6.19882 9.58705C7.24208 9.56049 7.49968 9.52829 7.76855 9.39386C7.94564 9.30531 8.21129 9.11936 8.3594 8.9801C8.50672 8.84083 8.68462 8.61866 8.75465 8.48584C8.82388 8.35301 9.00339 7.93684 9.15231 7.5601C9.30204 7.18337 9.51295 6.75834 9.62242 6.61425C9.7319 6.47016 9.96615 6.26247 10.1432 6.15138Z" fill="white"/>
</svg>
