<svg width="822" height="148" viewBox="0 0 822 148" fill="none" xmlns="http://www.w3.org/2000/svg">
<path d="M0 86.8142V43.4071V0H146.674V29.9157L37.2551 30.209L37.1084 58.2183C37.0263 73.6219 37.0908 86.2276 37.2551 86.2276C37.4194 86.2276 40.5171 83.1656 44.1488 79.4174C47.7804 75.675 52.9902 70.9178 55.736 68.8471C58.4817 66.7765 63.363 63.7791 66.5898 62.1777C69.887 60.5411 74.6393 58.7521 77.4437 58.0892C82.1138 56.9806 84.4136 56.9043 144.914 56.8985V86.8142H37.4025C37.519 88.7475 36.9618 104.249 36.9618 147.819H0V86.8142Z" fill="white"/>
<path d="M339.109 98.5458V49.2729V0H373.724V147.819H339.109V98.5458Z" fill="white"/>
<path d="M203.583 35.5821C206 35.0717 208.775 34.5438 209.743 34.4089C210.711 34.274 225.232 34.2095 272.52 34.3737L278.093 35.8812C281.162 36.7142 285.65 38.2158 288.067 39.2247C290.49 40.2278 294.45 42.3278 296.867 43.8881C299.291 45.4425 302.822 48.1525 304.717 49.9005C306.612 51.6544 309.358 54.6695 310.819 56.6052C312.28 58.5409 314.603 62.5003 315.982 65.4039C317.361 68.3075 318.898 72.2669 319.402 74.2026C319.901 76.1384 320.593 80.6257 320.934 84.1745C321.35 88.5035 321.368 92.6565 320.987 96.7861C320.676 100.176 319.989 104.664 319.467 106.758C318.939 108.852 317.238 113.21 315.683 116.437C314.128 119.663 311.277 124.285 309.358 126.702C307.434 129.124 304.365 132.286 302.535 133.741C300.704 135.195 297.36 137.501 295.102 138.873C292.849 140.246 289.352 142.029 287.334 142.839C285.315 143.654 281.555 144.833 278.973 145.461C276.392 146.094 272.033 146.88 269.293 147.215C266.553 147.549 253.61 147.819 240.545 147.813C227.479 147.813 214.407 147.537 211.503 147.203C208.599 146.874 204.111 146.077 201.53 145.431C198.948 144.786 194.724 143.343 192.142 142.217C189.561 141.096 186.041 139.325 184.316 138.281C182.591 137.237 179.423 134.908 177.276 133.101C175.128 131.301 172.265 128.397 170.916 126.649C169.572 124.907 167.519 121.892 166.357 119.956C165.201 118.02 163.611 114.718 162.831 112.624C162.051 110.53 161.136 107.755 160.789 106.465C160.449 105.174 159.886 101.08 159.546 97.3726C159.106 92.6507 159.106 88.7792 159.534 84.4678C159.868 81.0774 160.831 75.9331 161.664 73.0295C162.497 70.1259 164.28 65.6679 165.636 63.128C166.985 60.5822 169.543 56.7694 171.315 54.6519C173.087 52.5343 176.29 49.3374 178.426 47.5425C180.561 45.7534 184.122 43.2839 186.346 42.0638C188.564 40.8378 192.36 39.0898 194.783 38.1748C197.2 37.2597 201.16 36.0924 203.583 35.5821Z" fill="white"/>
<path d="M423.887 69.5569L437.967 51.8245L452.048 34.0863L473.169 34.0276C493.04 33.9748 494.237 34.0276 493.41 34.972C492.923 35.5234 483.067 47.3489 471.509 61.245C459.945 75.147 450.37 86.8493 450.241 87.2541C450.106 87.6588 459.892 101.314 471.996 117.61C484.093 133.899 493.997 147.367 493.997 147.525C493.997 147.684 484.557 147.825 452.048 147.842L416.847 98.6045L395.579 98.5751C383.88 98.5575 374.323 98.3464 374.335 98.1059C374.346 97.8654 375.596 95.9472 377.116 93.8531C378.629 91.759 381.592 88.222 383.692 85.9929C385.793 83.7698 389.225 80.6492 391.325 79.0595C393.426 77.4699 396.723 75.4169 398.659 74.4959C400.595 73.575 404.162 72.2611 406.579 71.5806C409.038 70.8826 413.831 70.167 423.887 69.5569Z" fill="white"/>
<path d="M504.903 107.784C504.111 103.936 503.971 97.9475 503.971 68.6301V34.0218H537.999L537.993 64.6707C537.987 91.2253 538.116 95.7537 538.938 98.5458C539.46 100.323 540.486 102.963 541.22 104.412C541.947 105.866 543.303 107.96 544.23 109.063C545.162 110.172 547.104 112.031 548.559 113.199C550.014 114.36 552.784 115.961 558.24 118.196L625 118.783L621.456 123.476C619.508 126.057 616.106 129.946 613.894 132.122C611.682 134.298 608.549 137.031 606.936 138.205C605.322 139.372 601.89 141.355 599.309 142.604C596.727 143.853 592.503 145.461 589.921 146.17C585.545 147.379 583.961 147.467 566.454 147.496C550.05 147.525 547.087 147.385 542.986 146.423C540.404 145.813 536.444 144.557 534.185 143.63C531.927 142.704 528.659 141.085 526.922 140.041C525.185 138.997 521.789 136.292 519.365 134.034C516.948 131.776 513.675 127.951 512.091 125.529C510.512 123.112 508.459 119.152 507.526 116.73C506.593 114.313 505.414 110.283 504.903 107.784Z" fill="white"/>
<path d="M625.416 118.49V76.2557V34.0218H659.445V52.0592C659.439 65.4684 659.21 71.5278 658.535 75.6691C658.042 78.7369 656.916 83.3533 656.036 85.9343C655.156 88.5152 653.261 92.6096 651.829 95.0263C650.398 97.4489 647.329 101.408 645.018 103.825C642.7 106.248 638.729 109.714 636.188 111.539C633.654 113.363 630.192 115.668 625.416 118.49Z" fill="white"/>
<path d="M726.328 36.1393C728.106 35.6173 731.139 34.9603 733.075 34.6787C735.011 34.3972 753.82 34.1332 813.159 34.0218V58.0716H758.889C723.101 58.0716 704.62 57.8722 704.62 57.4851C704.62 57.1624 705.359 55.3792 706.263 53.5256C707.172 51.672 708.756 48.8975 709.783 47.3665C710.816 45.8355 713.045 43.4951 714.741 42.1635C716.436 40.8378 719.012 39.1485 720.461 38.4153C721.91 37.682 724.55 36.6555 726.328 36.1393Z" fill="white"/>
<path d="M687.606 60.6937C689.055 60.1716 691.959 59.3914 694.06 58.9632C696.16 58.535 699.258 58.1596 704.034 58.0716L703.154 60.1247C702.667 61.2568 702.273 63.6324 702.273 65.4039C702.273 67.1813 702.555 69.3575 702.901 70.2432C703.241 71.129 704.104 72.4781 704.808 73.2348C705.512 73.9915 706.879 75.0473 707.847 75.5811C709.419 76.4492 713.96 76.5842 750.969 76.8716C787.649 77.1531 792.712 77.2998 795.705 78.1914C797.558 78.7369 800.862 80.045 803.038 81.095C805.766 82.4089 808.389 84.374 811.457 87.4007C814.555 90.4627 816.468 92.9615 817.747 95.6129C818.762 97.7129 819.988 101.009 820.481 102.945C820.985 104.91 821.372 108.928 821.367 112.037C821.361 115.105 820.962 119.258 820.486 121.276C820.005 123.294 818.65 126.854 817.477 129.195C816.016 132.104 814.027 134.761 811.17 137.606C808.219 140.545 805.708 142.393 802.598 143.918C800.181 145.103 796.15 146.47 793.651 146.951C789.814 147.684 779.787 147.819 669.419 147.819V123.769L783.625 123.476L785.778 121.862C786.963 120.977 788.324 119.457 788.811 118.49C789.298 117.522 789.685 115.475 789.679 113.944C789.673 112.16 789.204 110.33 788.359 108.846C787.643 107.573 786.124 105.99 784.997 105.327C782.991 104.148 781.988 104.112 739.529 103.802C700.337 103.514 695.773 103.385 692.593 102.452C690.657 101.878 687.366 100.57 685.277 99.543C683.194 98.5106 680.143 96.3461 678.501 94.733C676.858 93.1199 674.869 90.4803 674.077 88.8672C672.862 86.3801 672.645 85.0837 672.645 80.3618C672.651 75.4873 672.845 74.4255 674.188 71.8563C675.039 70.2432 676.752 67.9145 678.002 66.6827C679.252 65.4508 681.328 63.8084 682.619 63.0459C683.91 62.2774 686.157 61.2216 687.606 60.6937Z" fill="white"/>
<path d="M209.929 62.5661C211.624 61.8916 214.393 61.0997 216.089 60.8181C217.784 60.5307 228.609 60.2667 240.143 60.2315C257.181 60.1729 261.968 60.3371 265.665 61.088C268.164 61.6041 271.76 62.8536 273.661 63.8742C275.556 64.9007 278.39 67.118 279.968 68.8132C281.541 70.5085 283.482 73.2771 284.28 74.9724C285.084 76.6676 286.134 79.8996 286.615 82.158C287.102 84.4163 287.501 88.2408 287.501 90.6634C287.501 93.0801 287.102 96.9105 286.615 99.1689C286.134 101.427 285.084 104.659 284.28 106.354C283.482 108.05 281.441 110.836 279.745 112.549C278.05 114.262 275.21 116.373 273.438 117.247C271.666 118.121 268.756 119.224 266.985 119.699C264.391 120.397 259.076 120.567 239.997 120.579C219.891 120.591 215.737 120.444 213.009 119.646C211.237 119.13 208.221 117.875 206.32 116.854C204.414 115.84 201.774 113.798 200.453 112.32C199.128 110.848 197.291 108.073 196.358 106.161C195.431 104.255 194.317 100.97 193.877 98.8756C193.437 96.7815 193.079 92.9511 193.079 90.3701C193.079 87.7892 193.442 83.9588 193.883 81.8647C194.317 79.7706 195.373 76.6676 196.218 74.9724C197.062 73.2771 198.746 70.8018 199.955 69.4702C201.163 68.1328 203.211 66.3144 204.502 65.4228C205.792 64.5312 208.233 63.2466 209.929 62.5661Z" fill="#1E1E1E"/>
</svg>
