<svg width="19" height="18" viewBox="0 0 19 18" fill="none" xmlns="http://www.w3.org/2000/svg">
<path d="M7.67567 0.26967C7.8109 0.196416 8.01859 0.108673 8.13853 0.0748636C8.25767 0.0418592 10.737 0.0104648 18.9406 0L18.8939 0.221371C18.8682 0.342923 18.6243 1.00382 18.3522 1.69047C17.9223 2.77317 17.8056 2.98891 17.4731 3.32056C17.1962 3.59667 16.9716 3.73674 16.6665 3.82448C16.3115 3.92671 15.5106 3.94603 11.6555 3.94442C7.91153 3.94281 6.99304 3.96374 6.66461 4.05793C6.39896 4.1344 6.13734 4.29218 5.89665 4.5216C5.62859 4.77678 5.46035 5.04242 5.26876 5.51414C5.12548 5.86834 4.92745 6.33523 4.83005 6.55177C4.73184 6.76911 4.50725 7.06937 4.33015 7.21991C4.15305 7.37124 3.82703 7.54753 3.60566 7.61193C3.29977 7.70129 2.81758 7.72463 1.5932 7.70853C0.573287 7.69565 -0.0103264 7.65782 0.000138362 7.6071C0.00899319 7.56283 0.20219 7.00095 0.429195 6.35938C0.656201 5.7178 0.897696 5.08348 0.965315 4.95065C1.03293 4.81783 1.20198 4.58841 1.34044 4.44029C1.4797 4.29298 1.7381 4.09496 1.9152 4.00077C2.19533 3.85185 2.4167 3.82368 3.60566 3.78665C4.89444 3.74559 4.99507 3.7311 5.33638 3.53308C5.53521 3.41716 5.81052 3.1821 5.94656 3.00984C6.0826 2.83757 6.34422 2.31675 6.52776 1.85146C6.74591 1.29844 6.95923 0.901583 7.14518 0.704361C7.30135 0.538535 7.53962 0.342923 7.67567 0.26967Z" fill="white"/>
<path d="M10.1432 6.15138C10.3203 6.0411 10.5828 5.91713 10.7269 5.87688C10.871 5.83663 12.501 5.80041 14.3493 5.79638C16.1975 5.79236 17.7093 5.81651 17.7085 5.84951C17.7069 5.88252 17.5853 6.21739 17.438 6.59412C17.2899 6.97086 17.05 7.58586 16.9059 7.9626C16.761 8.33933 16.5252 8.79173 16.3827 8.96883C16.2394 9.14592 15.9456 9.38178 15.3354 9.69331L12.357 9.73356C9.71419 9.76898 9.34229 9.78991 9.05652 9.91871C8.87942 9.9984 8.63229 10.1618 8.50752 10.281C8.38275 10.4009 8.2129 10.607 8.13079 10.7398C8.04868 10.8726 7.87158 11.2711 7.73876 11.6253C7.60513 11.9795 7.34754 12.6492 7.16481 13.1145C6.98288 13.5798 6.67779 14.3767 6.4862 14.8855C6.29542 15.3942 6.0491 15.9923 5.93881 16.2137C5.82934 16.4351 5.59831 16.7345 5.42604 16.8786C5.25297 17.0227 4.94868 17.1925 4.74985 17.2561C4.4987 17.3358 3.88852 17.3793 2.76396 17.3962C1.87123 17.4099 1.11776 17.4026 1.09039 17.3809C1.06302 17.3592 1.12581 17.1233 1.23127 16.8577C1.33672 16.592 1.63215 15.8128 1.88813 15.127C2.14412 14.4411 2.60779 13.2272 2.91932 12.4303C3.23085 11.6333 3.54801 10.8549 3.62368 10.6995C3.70015 10.5442 3.88449 10.314 4.03422 10.1868C4.18475 10.0596 4.45201 9.87926 4.6291 9.7875C4.90441 9.6434 5.13061 9.61523 6.19882 9.58705C7.24208 9.56049 7.49968 9.52829 7.76855 9.39386C7.94564 9.30531 8.21129 9.11936 8.3594 8.9801C8.50672 8.84083 8.68462 8.61866 8.75465 8.48584C8.82388 8.35301 9.00339 7.93684 9.15231 7.5601C9.30204 7.18337 9.51295 6.75834 9.62242 6.61425C9.7319 6.47016 9.96615 6.26247 10.1432 6.15138Z" fill="white"/>
</svg>
